STARTFONT 2.1
FONT -FontForge-Vegan Style Personal Use-Book-R-Normal--8-80-75-75-P-53-ISO10646-1
SIZE 8 75 75
FONTBOUNDINGBOX 26 17 -5 -6
COMMENT "Generated by fontforge, http://fontforge.sourceforge.net"
COMMENT "Copyright (c) 2018 by Billy Argel. All rights reserved."
STARTPROPERTIES 41
FOUNDRY "FontForge"
FAMILY_NAME "Vegan Style Personal Use"
WEIGHT_NAME "Book"
SLANT "R"
SETWIDTH_NAME "Normal"
ADD_STYLE_NAME ""
PIXEL_SIZE 8
POINT_SIZE 80
RESOLUTION_X 75
RESOLUTION_Y 75
SPACING "P"
AVERAGE_WIDTH 53
CHARSET_REGISTRY "ISO10646"
CHARSET_ENCODING "1"
FONTNAME_REGISTRY ""
CHARSET_COLLECTIONS "ISO10646-1"
FONT_NAME "VeganStylePersonalUse"
FACE_NAME "Vegan Style Personal Use "
COPYRIGHT "Copyright (c) 2018 by Billy Argel. All rights reserved."
FONT_VERSION "1.000"
FONT_ASCENT 6
FONT_DESCENT 2
UNDERLINE_POSITION -1
UNDERLINE_THICKNESS 1
X_HEIGHT 4
CAP_HEIGHT 8
DEFAULT_CHAR 271
RAW_ASCENT 750
RAW_DESCENT 250
NORM_SPACE 2
RELATIVE_WEIGHT 40
RELATIVE_SETWIDTH 50
SUPERSCRIPT_X 0
SUPERSCRIPT_Y 3
SUPERSCRIPT_SIZE 5
SUBSCRIPT_X 0
SUBSCRIPT_Y 1
SUBSCRIPT_SIZE 5
FIGURE_WIDTH 10
AVG_LOWERCASE_WIDTH 35
AVG_UPPERCASE_WIDTH 72
ENDPROPERTIES
CHARS 284
STARTCHAR NULL
ENCODING 0
SWIDTH 0 0
DWIDTH 0 0
BBX 1 1 0 0
BITMAP
00
ENDCHAR
STARTCHAR nonmarkingreturn
ENCODING 13
SWIDTH 225 0
DWIDTH 2 0
BBX 1 1 0 0
BITMAP
00
ENDCHAR
STARTCHAR space
ENCODING 32
SWIDTH 225 0
DWIDTH 2 0
BBX 1 1 0 0
BITMAP
00
ENDCHAR
STARTCHAR zero
ENCODING 48
SWIDTH 1219 0
DWIDTH 10 0
BBX 8 8 1 0
BITMAP
10
10
2C
18
F7
4B
25
FF
ENDCHAR
STARTCHAR one
ENCODING 49
SWIDTH 1219 0
DWIDTH 10 0
BBX 8 8 1 0
BITMAP
10
10
2C
18
F7
4B
25
FF
ENDCHAR
STARTCHAR two
ENCODING 50
SWIDTH 1219 0
DWIDTH 10 0
BBX 8 8 1 0
BITMAP
10
10
2C
18
F7
4B
25
FF
ENDCHAR
STARTCHAR three
ENCODING 51
SWIDTH 1219 0
DWIDTH 10 0
BBX 8 8 1 0
BITMAP
10
10
2C
18
F7
4B
25
FF
ENDCHAR
STARTCHAR four
ENCODING 52
SWIDTH 1219 0
DWIDTH 10 0
BBX 8 8 1 0
BITMAP
10
10
2C
18
F7
4B
25
FF
ENDCHAR
STARTCHAR five
ENCODING 53
SWIDTH 1219 0
DWIDTH 10 0
BBX 8 8 1 0
BITMAP
10
10
2C
18
F7
4B
25
FF
ENDCHAR
STARTCHAR six
ENCODING 54
SWIDTH 1219 0
DWIDTH 10 0
BBX 8 8 1 0
BITMAP
10
10
2C
18
F7
4B
25
FF
ENDCHAR
STARTCHAR seven
ENCODING 55
SWIDTH 1219 0
DWIDTH 10 0
BBX 8 8 1 0
BITMAP
10
10
2C
18
F7
4B
25
FF
ENDCHAR
STARTCHAR eight
ENCODING 56
SWIDTH 1219 0
DWIDTH 10 0
BBX 8 8 1 0
BITMAP
10
10
2C
18
F7
4B
25
FF
ENDCHAR
STARTCHAR nine
ENCODING 57
SWIDTH 1219 0
DWIDTH 10 0
BBX 8 8 1 0
BITMAP
10
10
2C
18
F7
4B
25
FF
ENDCHAR
STARTCHAR A
ENCODING 65
SWIDTH 1301 0
DWIDTH 10 0
BBX 14 10 0 -1
BITMAP
0004
000C
0018
0038
1050
6BE0
8540
8640
8C80
F080
ENDCHAR
STARTCHAR B
ENCODING 66
SWIDTH 902 0
DWIDTH 7 0
BBX 9 9 0 -1
BITMAP
0780
0E80
1500
2A00
4E00
5200
5200
A400
7800
ENDCHAR
STARTCHAR C
ENCODING 67
SWIDTH 639 0
DWIDTH 5 0
BBX 8 9 0 -1
BITMAP
07
09
12
30
20
44
44
C8
F0
ENDCHAR
STARTCHAR D
ENCODING 68
SWIDTH 902 0
DWIDTH 7 0
BBX 9 9 0 -1
BITMAP
0F80
1480
2880
5980
5100
B200
2600
C800
F000
ENDCHAR
STARTCHAR E
ENCODING 69
SWIDTH 812 0
DWIDTH 7 0
BBX 10 10 0 -1
BITMAP
0040
0FC0
3C00
4C00
8F00
F800
7000
A000
A400
3C00
ENDCHAR
STARTCHAR F
ENCODING 70
SWIDTH 752 0
DWIDTH 6 0
BBX 10 10 0 -1
BITMAP
0040
0FC0
3C00
4800
9A00
FC00
6000
A000
C000
4000
ENDCHAR
STARTCHAR G
ENCODING 71
SWIDTH 962 0
DWIDTH 8 0
BBX 11 12 -1 -4
BITMAP
03E0
0620
0860
1880
10C0
2080
2980
3700
7E00
8600
4C00
3000
ENDCHAR
STARTCHAR H
ENCODING 72
SWIDTH 1218 0
DWIDTH 10 0
BBX 12 9 0 -1
BITMAP
03D0
0450
08A0
0960
1F40
6380
84C0
9900
F100
ENDCHAR
STARTCHAR I
ENCODING 73
SWIDTH 615 0
DWIDTH 5 0
BBX 8 9 0 -1
BITMAP
07
1A
36
64
CC
88
18
10
18
ENDCHAR
STARTCHAR J
ENCODING 74
SWIDTH 1007 0
DWIDTH 8 0
BBX 12 13 -1 -4
BITMAP
0020
00F0
01A0
0320
0640
0440
0080
3D80
4900
4200
8400
8800
7000
ENDCHAR
STARTCHAR K
ENCODING 75
SWIDTH 857 0
DWIDTH 7 0
BBX 10 11 0 -2
BITMAP
0040
0C40
0880
0980
1200
3C00
3800
6000
D000
9800
0E00
ENDCHAR
STARTCHAR L
ENCODING 76
SWIDTH 617 0
DWIDTH 5 0
BBX 8 10 0 -2
BITMAP
04
06
04
08
10
10
20
40
F1
0E
ENDCHAR
STARTCHAR M
ENCODING 77
SWIDTH 1166 0
DWIDTH 9 0
BBX 12 9 0 -1
BITMAP
0ED0
13B0
2760
4340
46C0
8F80
9680
A500
C9C0
ENDCHAR
STARTCHAR N
ENCODING 78
SWIDTH 820 0
DWIDTH 7 0
BBX 9 9 1 -1
BITMAP
1980
3700
5A00
B600
A400
6C00
C800
8800
8C00
ENDCHAR
STARTCHAR O
ENCODING 79
SWIDTH 806 0
DWIDTH 6 0
BBX 8 10 0 -1
BITMAP
04
09
11
21
71
42
C6
84
98
70
ENDCHAR
STARTCHAR P
ENCODING 80
SWIDTH 873 0
DWIDTH 7 0
BBX 9 9 0 -1
BITMAP
0F80
1C80
2C80
6880
5100
A600
3800
4000
4000
ENDCHAR
STARTCHAR Q
ENCODING 81
SWIDTH 1029 0
DWIDTH 8 0
BBX 10 12 0 -3
BITMAP
0100
02C0
0440
0840
18C0
1080
3180
2300
2600
F800
1840
0780
ENDCHAR
STARTCHAR R
ENCODING 82
SWIDTH 940 0
DWIDTH 8 0
BBX 9 10 0 -2
BITMAP
0F80
1E80
2480
4880
5900
B600
3800
2800
4800
0600
ENDCHAR
STARTCHAR S
ENCODING 83
SWIDTH 797 0
DWIDTH 6 0
BBX 9 9 0 -1
BITMAP
0780
0880
0900
1800
0C00
4400
C400
8800
7000
ENDCHAR
STARTCHAR T
ENCODING 84
SWIDTH 511 0
DWIDTH 4 0
BBX 10 9 1 -1
BITMAP
3FC0
4800
9800
9000
2000
6000
4000
8000
8000
ENDCHAR
STARTCHAR U
ENCODING 85
SWIDTH 963 0
DWIDTH 8 0
BBX 11 10 0 -2
BITMAP
0640
1B60
6640
4480
8980
1900
1200
3600
1A00
0200
ENDCHAR
STARTCHAR V
ENCODING 86
SWIDTH 805 0
DWIDTH 6 0
BBX 10 9 1 -1
BITMAP
0840
3880
4900
9200
B200
2400
4800
F000
C000
ENDCHAR
STARTCHAR W
ENCODING 87
SWIDTH 1308 0
DWIDTH 10 0
BBX 15 9 0 -1
BITMAP
0E02
1B44
6648
4488
8990
1920
1240
3680
3F00
ENDCHAR
STARTCHAR X
ENCODING 88
SWIDTH 1083 0
DWIDTH 9 0
BBX 14 10 0 -1
BITMAP
0200
031C
0360
0380
0300
0300
0600
0A00
3300
E1C0
ENDCHAR
STARTCHAR Y
ENCODING 89
SWIDTH 917 0
DWIDTH 7 0
BBX 12 12 -1 -4
BITMAP
0FA0
1930
3260
6640
0480
0980
1B00
7E00
8200
8400
D800
2000
ENDCHAR
STARTCHAR Z
ENCODING 90
SWIDTH 850 0
DWIDTH 7 0
BBX 10 10 0 -2
BITMAP
03C0
04C0
0B00
0600
1800
3000
4000
8000
7300
1C00
ENDCHAR
STARTCHAR grave
ENCODING 96
SWIDTH 390 0
DWIDTH 3 0
BBX 1 2 1 5
BITMAP
80
80
ENDCHAR
STARTCHAR a
ENCODING 97
SWIDTH 574 0
DWIDTH 5 0
BBX 6 5 0 0
BITMAP
10
70
54
B8
F0
ENDCHAR
STARTCHAR b
ENCODING 98
SWIDTH 511 0
DWIDTH 4 0
BBX 5 7 0 0
BITMAP
10
30
30
68
58
90
E0
ENDCHAR
STARTCHAR c
ENCODING 99
SWIDTH 413 0
DWIDTH 3 0
BBX 5 5 0 0
BITMAP
10
70
48
90
E0
ENDCHAR
STARTCHAR d
ENCODING 100
SWIDTH 574 0
DWIDTH 5 0
BBX 7 7 0 0
BITMAP
06
04
1C
68
54
B8
F0
ENDCHAR
STARTCHAR e
ENCODING 101
SWIDTH 413 0
DWIDTH 3 0
BBX 5 5 0 0
BITMAP
10
70
68
D0
E0
ENDCHAR
STARTCHAR f
ENCODING 102
SWIDTH 235 0
DWIDTH 2 0
BBX 6 10 -2 -3
BITMAP
04
0C
08
10
18
30
60
60
C0
C0
ENDCHAR
STARTCHAR g
ENCODING 103
SWIDTH 496 0
DWIDTH 4 0
BBX 7 9 -3 -4
BITMAP
02
0E
0A
16
1C
38
4C
94
60
ENDCHAR
STARTCHAR h
ENCODING 104
SWIDTH 511 0
DWIDTH 4 0
BBX 5 7 0 0
BITMAP
10
30
30
70
58
A8
B0
ENDCHAR
STARTCHAR i
ENCODING 105
SWIDTH 263 0
DWIDTH 2 0
BBX 4 7 0 0
BITMAP
10
30
60
40
60
A0
C0
ENDCHAR
STARTCHAR j
ENCODING 106
SWIDTH 180 0
DWIDTH 1 0
BBX 9 11 -5 -4
BITMAP
0080
0100
0200
0200
0200
0400
0400
3800
D800
BC00
4000
ENDCHAR
STARTCHAR k
ENCODING 107
SWIDTH 483 0
DWIDTH 4 0
BBX 5 7 0 0
BITMAP
10
30
30
70
78
D0
E0
ENDCHAR
STARTCHAR l
ENCODING 108
SWIDTH 269 0
DWIDTH 2 0
BBX 4 7 0 0
BITMAP
10
30
20
40
60
A0
C0
ENDCHAR
STARTCHAR m
ENCODING 109
SWIDTH 753 0
DWIDTH 6 0
BBX 7 5 0 0
BITMAP
54
7C
5E
AA
AC
ENDCHAR
STARTCHAR n
ENCODING 110
SWIDTH 511 0
DWIDTH 4 0
BBX 5 5 0 0
BITMAP
50
70
58
A8
B0
ENDCHAR
STARTCHAR o
ENCODING 111
SWIDTH 471 0
DWIDTH 4 0
BBX 4 5 0 0
BITMAP
10
70
50
90
E0
ENDCHAR
STARTCHAR p
ENCODING 112
SWIDTH 555 0
DWIDTH 4 0
BBX 6 7 -1 -2
BITMAP
28
34
2C
48
70
80
80
ENDCHAR
STARTCHAR q
ENCODING 113
SWIDTH 474 0
DWIDTH 4 0
BBX 4 8 0 -3
BITMAP
10
70
50
B0
E0
60
40
40
ENDCHAR
STARTCHAR r
ENCODING 114
SWIDTH 390 0
DWIDTH 3 0
BBX 3 5 1 0
BITMAP
60
E0
E0
A0
C0
ENDCHAR
STARTCHAR s
ENCODING 115
SWIDTH 309 0
DWIDTH 2 0
BBX 4 5 0 0
BITMAP
30
60
60
C0
C0
ENDCHAR
STARTCHAR t
ENCODING 116
SWIDTH 269 0
DWIDTH 2 0
BBX 5 7 0 0
BITMAP
10
38
60
40
60
A0
C0
ENDCHAR
STARTCHAR u
ENCODING 117
SWIDTH 534 0
DWIDTH 4 0
BBX 5 5 0 0
BITMAP
50
58
58
A8
F0
ENDCHAR
STARTCHAR v
ENCODING 118
SWIDTH 391 0
DWIDTH 3 0
BBX 4 5 0 0
BITMAP
50
70
50
A0
C0
ENDCHAR
STARTCHAR w
ENCODING 119
SWIDTH 670 0
DWIDTH 5 0
BBX 7 5 0 0
BITMAP
54
7A
54
A8
F0
ENDCHAR
STARTCHAR x
ENCODING 120
SWIDTH 489 0
DWIDTH 4 0
BBX 6 5 -1 0
BITMAP
14
34
5C
38
D8
ENDCHAR
STARTCHAR y
ENCODING 121
SWIDTH 444 0
DWIDTH 4 0
BBX 8 9 -3 -4
BITMAP
0A
0F
0A
14
1C
38
D8
94
60
ENDCHAR
STARTCHAR z
ENCODING 122
SWIDTH 375 0
DWIDTH 3 0
BBX 7 9 -3 -4
BITMAP
06
0E
14
08
38
38
D8
94
60
ENDCHAR
STARTCHAR dieresis
ENCODING 168
SWIDTH 601 0
DWIDTH 5 0
BBX 2 1 2 5
BITMAP
C0
ENDCHAR
STARTCHAR macron
ENCODING 175
SWIDTH 390 0
DWIDTH 3 0
BBX 2 1 1 5
BITMAP
C0
ENDCHAR
STARTCHAR acute
ENCODING 180
SWIDTH 390 0
DWIDTH 3 0
BBX 2 2 1 5
BITMAP
80
C0
ENDCHAR
STARTCHAR cedilla
ENCODING 184
SWIDTH 601 0
DWIDTH 5 0
BBX 1 1 1 -1
BITMAP
80
ENDCHAR
STARTCHAR Agrave
ENCODING 192
SWIDTH 1301 0
DWIDTH 10 0
BBX 14 12 0 -1
BITMAP
0008
0004
0004
000C
0018
0038
1050
6BE0
8540
8640
8C80
F080
ENDCHAR
STARTCHAR Aacute
ENCODING 193
SWIDTH 1301 0
DWIDTH 10 0
BBX 15 12 0 -1
BITMAP
0002
0002
0004
000C
0018
0038
1050
6BE0
8540
8640
8C80
F080
ENDCHAR
STARTCHAR Acircumflex
ENCODING 194
SWIDTH 1301 0
DWIDTH 10 0
BBX 14 11 0 -1
BITMAP
0004
0004
000C
0018
0038
1050
6BE0
8540
8640
8C80
F080
ENDCHAR
STARTCHAR Atilde
ENCODING 195
SWIDTH 1301 0
DWIDTH 10 0
BBX 15 11 0 -1
BITMAP
0006
0004
000C
0018
0038
1050
6BE0
8540
8640
8C80
F080
ENDCHAR
STARTCHAR Adieresis
ENCODING 196
SWIDTH 1301 0
DWIDTH 10 0
BBX 15 11 0 -1
BITMAP
0006
0004
000C
0018
0038
1050
6BE0
8540
8640
8C80
F080
ENDCHAR
STARTCHAR Aring
ENCODING 197
SWIDTH 1301 0
DWIDTH 10 0
BBX 15 12 0 -1
BITMAP
0004
0006
0004
000C
0018
0038
1050
6BE0
8540
8640
8C80
F080
ENDCHAR
STARTCHAR AE
ENCODING 198
SWIDTH 2114 0
DWIDTH 17 0
BBX 21 10 0 -1
BITMAP
000408
000FF0
001F00
003900
1052C0
6BF700
855C00
866800
8CA900
F08F00
ENDCHAR
STARTCHAR Ccedilla
ENCODING 199
SWIDTH 639 0
DWIDTH 5 0
BBX 8 11 0 -3
BITMAP
07
09
12
30
20
44
44
C8
F0
40
40
ENDCHAR
STARTCHAR Egrave
ENCODING 200
SWIDTH 812 0
DWIDTH 7 0
BBX 10 11 0 -1
BITMAP
0400
0240
0FC0
3C00
4C00
8F00
F800
7000
A000
A400
3C00
ENDCHAR
STARTCHAR Eacute
ENCODING 201
SWIDTH 812 0
DWIDTH 7 0
BBX 10 11 0 -1
BITMAP
0100
0240
0FC0
3C00
4C00
8F00
F800
7000
A000
A400
3C00
ENDCHAR
STARTCHAR Ecircumflex
ENCODING 202
SWIDTH 812 0
DWIDTH 7 0
BBX 10 11 0 -1
BITMAP
0200
0640
0FC0
3C00
4C00
8F00
F800
7000
A000
A400
3C00
ENDCHAR
STARTCHAR Edieresis
ENCODING 203
SWIDTH 812 0
DWIDTH 7 0
BBX 10 11 0 -1
BITMAP
0500
0740
0FC0
3C00
4C00
8F00
F800
7000
A000
A400
3C00
ENDCHAR
STARTCHAR Igrave
ENCODING 204
SWIDTH 615 0
DWIDTH 5 0
BBX 8 11 0 -1
BITMAP
02
02
07
1A
36
64
CC
88
18
10
18
ENDCHAR
STARTCHAR Iacute
ENCODING 205
SWIDTH 615 0
DWIDTH 5 0
BBX 9 11 0 -1
BITMAP
0080
0100
0700
1A00
3600
6400
CC00
8800
1800
1000
1800
ENDCHAR
STARTCHAR Icircumflex
ENCODING 206
SWIDTH 615 0
DWIDTH 5 0
BBX 9 10 0 -1
BITMAP
0180
0700
1A00
3600
6400
CC00
8800
1800
1000
1800
ENDCHAR
STARTCHAR Idieresis
ENCODING 207
SWIDTH 615 0
DWIDTH 5 0
BBX 9 10 0 -1
BITMAP
0180
0700
1A00
3600
6400
CC00
8800
1800
1000
1800
ENDCHAR
STARTCHAR Eth
ENCODING 208
SWIDTH 902 0
DWIDTH 7 0
BBX 9 9 0 -1
BITMAP
0F80
1480
2880
5980
7900
B200
2600
C800
F000
ENDCHAR
STARTCHAR Ntilde
ENCODING 209
SWIDTH 820 0
DWIDTH 7 0
BBX 9 11 1 -1
BITMAP
0100
0600
1980
3700
5A00
B600
A400
6C00
C800
8800
8C00
ENDCHAR
STARTCHAR Ograve
ENCODING 210
SWIDTH 806 0
DWIDTH 6 0
BBX 8 11 0 -1
BITMAP
04
06
09
11
21
71
42
C6
84
98
70
ENDCHAR
STARTCHAR Oacute
ENCODING 211
SWIDTH 806 0
DWIDTH 6 0
BBX 8 12 0 -1
BITMAP
01
01
06
09
11
21
71
42
C6
84
98
70
ENDCHAR
STARTCHAR Ocircumflex
ENCODING 212
SWIDTH 806 0
DWIDTH 6 0
BBX 8 11 0 -1
BITMAP
01
06
09
11
21
71
42
C6
84
98
70
ENDCHAR
STARTCHAR Otilde
ENCODING 213
SWIDTH 806 0
DWIDTH 6 0
BBX 8 11 0 -1
BITMAP
03
04
09
11
21
71
42
C6
84
98
70
ENDCHAR
STARTCHAR Odieresis
ENCODING 214
SWIDTH 806 0
DWIDTH 6 0
BBX 8 11 0 -1
BITMAP
03
04
09
11
21
71
42
C6
84
98
70
ENDCHAR
STARTCHAR multiply
ENCODING 215
SWIDTH 722 0
DWIDTH 6 0
BBX 3 3 1 1
BITMAP
60
60
C0
ENDCHAR
STARTCHAR Oslash
ENCODING 216
SWIDTH 806 0
DWIDTH 6 0
BBX 8 11 0 -2
BITMAP
04
09
19
29
79
52
D6
94
B8
70
20
ENDCHAR
STARTCHAR Ugrave
ENCODING 217
SWIDTH 963 0
DWIDTH 8 0
BBX 11 12 0 -2
BITMAP
0100
0080
0640
1B60
6640
4480
8980
1900
1200
3600
1A00
0200
ENDCHAR
STARTCHAR Uacute
ENCODING 218
SWIDTH 963 0
DWIDTH 8 0
BBX 11 11 0 -2
BITMAP
0040
06C0
1B60
6640
4480
8980
1900
1200
3600
1A00
0200
ENDCHAR
STARTCHAR Ucircumflex
ENCODING 219
SWIDTH 963 0
DWIDTH 8 0
BBX 11 11 0 -2
BITMAP
00C0
0640
1B60
6640
4480
8980
1900
1200
3600
1A00
0200
ENDCHAR
STARTCHAR Udieresis
ENCODING 220
SWIDTH 963 0
DWIDTH 8 0
BBX 11 11 0 -2
BITMAP
00C0
0640
1B60
6640
4480
8980
1900
1200
3600
1A00
0200
ENDCHAR
STARTCHAR Yacute
ENCODING 221
SWIDTH 917 0
DWIDTH 7 0
BBX 12 14 -1 -4
BITMAP
0020
0040
0FA0
1930
3260
6640
0480
0980
1B00
7E00
8200
8400
D800
2000
ENDCHAR
STARTCHAR germandbls
ENCODING 223
SWIDTH 518 0
DWIDTH 4 0
BBX 8 10 -2 -2
BITMAP
02
0F
1A
0A
1C
14
24
78
70
C0
ENDCHAR
STARTCHAR agrave
ENCODING 224
SWIDTH 574 0
DWIDTH 5 0
BBX 6 7 0 0
BITMAP
20
10
10
70
54
B8
F0
ENDCHAR
STARTCHAR aacute
ENCODING 225
SWIDTH 574 0
DWIDTH 5 0
BBX 6 7 0 0
BITMAP
08
10
10
70
54
B8
F0
ENDCHAR
STARTCHAR acircumflex
ENCODING 226
SWIDTH 574 0
DWIDTH 5 0
BBX 6 6 0 0
BITMAP
10
18
70
54
B8
F0
ENDCHAR
STARTCHAR atilde
ENCODING 227
SWIDTH 574 0
DWIDTH 5 0
BBX 6 6 0 0
BITMAP
18
10
70
54
B8
F0
ENDCHAR
STARTCHAR adieresis
ENCODING 228
SWIDTH 574 0
DWIDTH 5 0
BBX 6 6 0 0
BITMAP
18
10
70
54
B8
F0
ENDCHAR
STARTCHAR aring
ENCODING 229
SWIDTH 574 0
DWIDTH 5 0
BBX 6 7 0 0
BITMAP
08
18
10
70
54
B8
F0
ENDCHAR
STARTCHAR ae
ENCODING 230
SWIDTH 987 0
DWIDTH 8 0
BBX 9 5 0 0
BITMAP
1100
7280
5580
BF00
F600
ENDCHAR
STARTCHAR ccedilla
ENCODING 231
SWIDTH 413 0
DWIDTH 3 0
BBX 5 6 0 -1
BITMAP
10
70
48
90
E0
40
ENDCHAR
STARTCHAR egrave
ENCODING 232
SWIDTH 413 0
DWIDTH 3 0
BBX 5 7 0 0
BITMAP
40
20
10
70
68
D0
E0
ENDCHAR
STARTCHAR eacute
ENCODING 233
SWIDTH 413 0
DWIDTH 3 0
BBX 5 7 0 0
BITMAP
08
08
10
70
68
D0
E0
ENDCHAR
STARTCHAR ecircumflex
ENCODING 234
SWIDTH 413 0
DWIDTH 3 0
BBX 5 6 0 0
BITMAP
10
70
70
68
D0
E0
ENDCHAR
STARTCHAR edieresis
ENCODING 235
SWIDTH 413 0
DWIDTH 3 0
BBX 5 6 0 0
BITMAP
18
10
70
68
D0
E0
ENDCHAR
STARTCHAR igrave
ENCODING 236
SWIDTH 263 0
DWIDTH 2 0
BBX 3 7 0 0
BITMAP
40
60
40
60
60
A0
C0
ENDCHAR
STARTCHAR iacute
ENCODING 237
SWIDTH 263 0
DWIDTH 2 0
BBX 4 7 0 0
BITMAP
10
30
40
60
60
A0
C0
ENDCHAR
STARTCHAR icircumflex
ENCODING 238
SWIDTH 263 0
DWIDTH 2 0
BBX 3 6 0 0
BITMAP
20
60
40
60
A0
C0
ENDCHAR
STARTCHAR idieresis
ENCODING 239
SWIDTH 263 0
DWIDTH 2 0
BBX 4 6 0 0
BITMAP
30
40
60
60
A0
C0
ENDCHAR
STARTCHAR eth
ENCODING 240
SWIDTH 601 0
DWIDTH 5 0
BBX 7 9 0 0
BITMAP
0C
12
36
24
3C
08
10
60
C0
ENDCHAR
STARTCHAR ntilde
ENCODING 241
SWIDTH 511 0
DWIDTH 4 0
BBX 5 6 0 0
BITMAP
38
50
70
58
A8
B0
ENDCHAR
STARTCHAR ograve
ENCODING 242
SWIDTH 471 0
DWIDTH 4 0
BBX 4 7 0 0
BITMAP
20
20
10
70
50
90
E0
ENDCHAR
STARTCHAR oacute
ENCODING 243
SWIDTH 471 0
DWIDTH 4 0
BBX 5 7 0 0
BITMAP
08
10
10
70
50
90
E0
ENDCHAR
STARTCHAR ocircumflex
ENCODING 244
SWIDTH 471 0
DWIDTH 4 0
BBX 4 6 0 0
BITMAP
10
10
70
50
90
E0
ENDCHAR
STARTCHAR otilde
ENCODING 245
SWIDTH 471 0
DWIDTH 4 0
BBX 5 6 0 0
BITMAP
18
30
70
50
90
E0
ENDCHAR
STARTCHAR odieresis
ENCODING 246
SWIDTH 471 0
DWIDTH 4 0
BBX 5 6 0 0
BITMAP
18
10
70
50
90
E0
ENDCHAR
STARTCHAR oslash
ENCODING 248
SWIDTH 471 0
DWIDTH 4 0
BBX 4 7 0 -1
BITMAP
10
10
70
70
D0
E0
80
ENDCHAR
STARTCHAR ugrave
ENCODING 249
SWIDTH 537 0
DWIDTH 4 0
BBX 6 7 0 0
BITMAP
20
10
50
78
54
A8
F0
ENDCHAR
STARTCHAR uacute
ENCODING 250
SWIDTH 537 0
DWIDTH 4 0
BBX 6 7 0 0
BITMAP
10
30
50
78
54
A8
F0
ENDCHAR
STARTCHAR ucircumflex
ENCODING 251
SWIDTH 537 0
DWIDTH 4 0
BBX 6 6 0 0
BITMAP
10
70
78
54
A8
F0
ENDCHAR
STARTCHAR udieresis
ENCODING 252
SWIDTH 537 0
DWIDTH 4 0
BBX 6 6 0 0
BITMAP
30
50
78
54
A8
F0
ENDCHAR
STARTCHAR yacute
ENCODING 253
SWIDTH 444 0
DWIDTH 4 0
BBX 8 11 -3 -4
BITMAP
02
02
0A
0F
0A
14
1C
38
D8
94
60
ENDCHAR
STARTCHAR ydieresis
ENCODING 255
SWIDTH 444 0
DWIDTH 4 0
BBX 8 10 -3 -4
BITMAP
07
0A
0F
0A
14
1C
38
D8
94
60
ENDCHAR
STARTCHAR Amacron
ENCODING 256
SWIDTH 1301 0
DWIDTH 10 0
BBX 15 11 0 -1
BITMAP
0006
000C
000C
0018
0038
1050
6BE0
8540
8640
8C80
F080
ENDCHAR
STARTCHAR amacron
ENCODING 257
SWIDTH 574 0
DWIDTH 5 0
BBX 6 6 0 0
BITMAP
30
10
70
54
B8
F0
ENDCHAR
STARTCHAR Abreve
ENCODING 258
SWIDTH 1301 0
DWIDTH 10 0
BBX 15 11 0 -1
BITMAP
0006
0004
000C
0018
0038
1050
6BE0
8540
8640
8C80
F080
ENDCHAR
STARTCHAR abreve
ENCODING 259
SWIDTH 574 0
DWIDTH 5 0
BBX 6 6 0 0
BITMAP
18
10
70
54
B8
F0
ENDCHAR
STARTCHAR Aogonek
ENCODING 260
SWIDTH 1301 0
DWIDTH 10 0
BBX 14 11 0 -2
BITMAP
0004
000C
0018
0038
1050
6BE0
8540
8640
8C80
F080
0100
ENDCHAR
STARTCHAR aogonek
ENCODING 261
SWIDTH 574 0
DWIDTH 5 0
BBX 6 6 0 -1
BITMAP
10
70
54
B8
F0
20
ENDCHAR
STARTCHAR Cacute
ENCODING 262
SWIDTH 639 0
DWIDTH 5 0
BBX 8 11 0 -1
BITMAP
01
02
07
09
12
30
20
44
44
C8
F0
ENDCHAR
STARTCHAR cacute
ENCODING 263
SWIDTH 413 0
DWIDTH 3 0
BBX 5 7 0 0
BITMAP
08
18
10
70
48
90
E0
ENDCHAR
STARTCHAR Ccircumflex
ENCODING 264
SWIDTH 639 0
DWIDTH 5 0
BBX 8 11 0 -1
BITMAP
02
03
07
09
12
30
20
44
44
C8
F0
ENDCHAR
STARTCHAR ccircumflex
ENCODING 265
SWIDTH 413 0
DWIDTH 3 0
BBX 5 6 0 0
BITMAP
10
10
70
48
90
E0
ENDCHAR
STARTCHAR Cdotaccent
ENCODING 266
SWIDTH 639 0
DWIDTH 5 0
BBX 8 10 0 -1
BITMAP
01
07
09
12
30
20
44
44
C8
F0
ENDCHAR
STARTCHAR cdotaccent
ENCODING 267
SWIDTH 413 0
DWIDTH 3 0
BBX 5 6 0 0
BITMAP
10
10
70
48
90
E0
ENDCHAR
STARTCHAR Ccaron
ENCODING 268
SWIDTH 639 0
DWIDTH 5 0
BBX 8 11 0 -1
BITMAP
03
01
07
09
12
30
20
44
44
C8
F0
ENDCHAR
STARTCHAR ccaron
ENCODING 269
SWIDTH 413 0
DWIDTH 3 0
BBX 5 6 0 0
BITMAP
18
10
70
48
90
E0
ENDCHAR
STARTCHAR Dcaron
ENCODING 270
SWIDTH 902 0
DWIDTH 7 0
BBX 9 11 0 -1
BITMAP
0300
0200
0D80
1480
2880
5980
5100
B200
2600
C800
F000
ENDCHAR
STARTCHAR dcaron
ENCODING 271
SWIDTH 574 0
DWIDTH 5 0
BBX 7 8 0 0
BITMAP
02
06
04
1C
68
54
B8
F0
ENDCHAR
STARTCHAR Dcroat
ENCODING 272
SWIDTH 902 0
DWIDTH 7 0
BBX 9 9 0 -1
BITMAP
0F80
1480
2880
5980
5100
B200
2600
C800
F000
ENDCHAR
STARTCHAR dcroat
ENCODING 273
SWIDTH 574 0
DWIDTH 5 0
BBX 7 7 0 0
BITMAP
06
0C
1C
68
54
B8
F0
ENDCHAR
STARTCHAR Emacron
ENCODING 274
SWIDTH 812 0
DWIDTH 7 0
BBX 10 10 0 -1
BITMAP
0740
0FC0
3C00
4C00
8F00
F800
7000
A000
A400
3C00
ENDCHAR
STARTCHAR emacron
ENCODING 275
SWIDTH 413 0
DWIDTH 3 0
BBX 5 6 0 0
BITMAP
18
30
70
68
D0
E0
ENDCHAR
STARTCHAR Ebreve
ENCODING 276
SWIDTH 812 0
DWIDTH 7 0
BBX 10 11 0 -1
BITMAP
0200
0240
0FC0
3C00
4C00
8F00
F800
7000
A000
A400
3C00
ENDCHAR
STARTCHAR ebreve
ENCODING 277
SWIDTH 413 0
DWIDTH 3 0
BBX 5 6 0 0
BITMAP
18
10
70
68
D0
E0
ENDCHAR
STARTCHAR Edotaccent
ENCODING 278
SWIDTH 812 0
DWIDTH 7 0
BBX 10 10 0 -1
BITMAP
0240
0FC0
3C00
4C00
8F00
F800
7000
A000
A400
3C00
ENDCHAR
STARTCHAR edotaccent
ENCODING 279
SWIDTH 413 0
DWIDTH 3 0
BBX 5 6 0 0
BITMAP
10
10
70
68
D0
E0
ENDCHAR
STARTCHAR Eogonek
ENCODING 280
SWIDTH 812 0
DWIDTH 7 0
BBX 10 11 0 -2
BITMAP
0040
0FC0
3C00
4C00
8F00
F800
7000
A000
A400
3C00
2000
ENDCHAR
STARTCHAR eogonek
ENCODING 281
SWIDTH 413 0
DWIDTH 3 0
BBX 5 6 0 -1
BITMAP
10
70
68
D0
E0
80
ENDCHAR
STARTCHAR Ecaron
ENCODING 282
SWIDTH 812 0
DWIDTH 7 0
BBX 10 11 0 -1
BITMAP
0600
0340
0FC0
3C00
4C00
8F00
F800
7000
A000
A400
3C00
ENDCHAR
STARTCHAR ecaron
ENCODING 283
SWIDTH 413 0
DWIDTH 3 0
BBX 5 6 0 0
BITMAP
18
10
70
68
D0
E0
ENDCHAR
STARTCHAR Gcircumflex
ENCODING 284
SWIDTH 962 0
DWIDTH 8 0
BBX 11 14 -1 -4
BITMAP
0040
00A0
03E0
0620
0860
1880
10C0
2080
2980
3700
7E00
8600
4C00
3000
ENDCHAR
STARTCHAR gcircumflex
ENCODING 285
SWIDTH 496 0
DWIDTH 4 0
BBX 8 10 -3 -4
BITMAP
02
03
0E
0A
16
1C
38
4C
94
60
ENDCHAR
STARTCHAR Gbreve
ENCODING 286
SWIDTH 962 0
DWIDTH 8 0
BBX 11 14 -1 -4
BITMAP
0060
0000
03E0
0620
0860
1880
10C0
2080
2980
3700
7E00
8600
4C00
3000
ENDCHAR
STARTCHAR gbreve
ENCODING 287
SWIDTH 496 0
DWIDTH 4 0
BBX 8 10 -3 -4
BITMAP
03
02
0E
0A
16
1C
38
4C
94
60
ENDCHAR
STARTCHAR Gdotaccent
ENCODING 288
SWIDTH 962 0
DWIDTH 8 0
BBX 11 14 -1 -4
BITMAP
0040
0000
03E0
0620
0860
1880
10C0
2080
2980
3700
7E00
8600
4C00
3000
ENDCHAR
STARTCHAR gdotaccent
ENCODING 289
SWIDTH 496 0
DWIDTH 4 0
BBX 7 10 -3 -4
BITMAP
02
02
0E
0A
16
1C
38
4C
94
60
ENDCHAR
STARTCHAR uni0122
ENCODING 290
SWIDTH 962 0
DWIDTH 8 0
BBX 11 14 -1 -6
BITMAP
03E0
0620
0860
1880
10C0
2080
2980
3700
7E00
8600
4C00
3000
2000
4000
ENDCHAR
STARTCHAR uni0123
ENCODING 291
SWIDTH 496 0
DWIDTH 4 0
BBX 7 11 -3 -6
BITMAP
02
0E
0A
16
1C
38
4C
94
60
40
40
ENDCHAR
STARTCHAR Hcircumflex
ENCODING 292
SWIDTH 1218 0
DWIDTH 10 0
BBX 12 11 0 -1
BITMAP
0020
0050
03D0
0450
08A0
0960
1F40
6380
84C0
9900
F100
ENDCHAR
STARTCHAR hcircumflex
ENCODING 293
SWIDTH 511 0
DWIDTH 4 0
BBX 5 9 0 0
BITMAP
08
18
10
30
30
70
58
A8
B0
ENDCHAR
STARTCHAR Hbar
ENCODING 294
SWIDTH 1218 0
DWIDTH 10 0
BBX 13 9 0 -1
BITMAP
03D0
0450
08A0
09F8
1F40
6380
84C0
9900
F100
ENDCHAR
STARTCHAR hbar
ENCODING 295
SWIDTH 511 0
DWIDTH 4 0
BBX 5 7 0 0
BITMAP
10
30
30
70
58
A8
B0
ENDCHAR
STARTCHAR Itilde
ENCODING 296
SWIDTH 615 0
DWIDTH 5 0
BBX 9 10 0 -1
BITMAP
0380
0700
1A00
3600
6400
CC00
8800
1800
1000
1800
ENDCHAR
STARTCHAR itilde
ENCODING 297
SWIDTH 263 0
DWIDTH 2 0
BBX 4 6 0 0
BITMAP
30
40
60
60
A0
C0
ENDCHAR
STARTCHAR Imacron
ENCODING 298
SWIDTH 615 0
DWIDTH 5 0
BBX 9 10 0 -1
BITMAP
0180
0700
1A00
3600
6400
CC00
8800
1800
1000
1800
ENDCHAR
STARTCHAR imacron
ENCODING 299
SWIDTH 263 0
DWIDTH 2 0
BBX 4 6 0 0
BITMAP
30
40
60
60
A0
C0
ENDCHAR
STARTCHAR Iogonek
ENCODING 302
SWIDTH 615 0
DWIDTH 5 0
BBX 8 10 0 -2
BITMAP
07
1A
36
64
CC
88
18
10
18
10
ENDCHAR
STARTCHAR iogonek
ENCODING 303
SWIDTH 263 0
DWIDTH 2 0
BBX 4 8 0 -1
BITMAP
10
30
60
40
60
A0
C0
80
ENDCHAR
STARTCHAR Idotaccent
ENCODING 304
SWIDTH 615 0
DWIDTH 5 0
BBX 8 10 0 -1
BITMAP
01
07
1A
36
64
CC
88
18
10
18
ENDCHAR
STARTCHAR dotlessi
ENCODING 305
SWIDTH 263 0
DWIDTH 2 0
BBX 3 5 0 0
BITMAP
40
60
60
A0
C0
ENDCHAR
STARTCHAR IJ
ENCODING 306
SWIDTH 1622 0
DWIDTH 13 0
BBX 16 13 0 -4
BITMAP
0002
070F
1A1A
3632
6464
CC4C
8808
1BD8
1490
1820
0840
0880
0700
ENDCHAR
STARTCHAR ij
ENCODING 307
SWIDTH 444 0
DWIDTH 4 0
BBX 9 11 -3 -4
BITMAP
0280
0700
0E00
0B00
0A00
1400
1C00
3800
D800
9C00
6000
ENDCHAR
STARTCHAR Jcircumflex
ENCODING 308
SWIDTH 1007 0
DWIDTH 8 0
BBX 12 14 -1 -4
BITMAP
0010
0070
00F0
01A0
0320
0640
0440
0080
3D80
4900
4200
8400
8800
7000
ENDCHAR
STARTCHAR jcircumflex
ENCODING 309
SWIDTH 180 0
DWIDTH 1 0
BBX 8 10 -5 -4
BITMAP
01
03
02
02
04
04
38
D8
BC
40
ENDCHAR
STARTCHAR uni0136
ENCODING 310
SWIDTH 857 0
DWIDTH 7 0
BBX 10 12 0 -3
BITMAP
0040
0C40
0880
0980
1200
3C00
3800
6000
D000
9800
4E00
4000
ENDCHAR
STARTCHAR uni0137
ENCODING 311
SWIDTH 483 0
DWIDTH 4 0
BBX 5 9 0 -2
BITMAP
10
30
30
70
78
D0
E0
80
C0
ENDCHAR
STARTCHAR kgreenlandic
ENCODING 312
SWIDTH 483 0
DWIDTH 4 0
BBX 5 7 0 0
BITMAP
20
30
30
70
78
D0
E0
ENDCHAR
STARTCHAR Lacute
ENCODING 313
SWIDTH 617 0
DWIDTH 5 0
BBX 8 12 0 -2
BITMAP
01
02
04
06
04
08
10
10
20
40
F1
0E
ENDCHAR
STARTCHAR lacute
ENCODING 314
SWIDTH 269 0
DWIDTH 2 0
BBX 5 9 0 0
BITMAP
08
10
10
30
20
40
60
A0
C0
ENDCHAR
STARTCHAR uni013B
ENCODING 315
SWIDTH 617 0
DWIDTH 5 0
BBX 8 12 0 -4
BITMAP
04
06
04
08
10
10
20
40
F1
0E
20
40
ENDCHAR
STARTCHAR uni013C
ENCODING 316
SWIDTH 269 0
DWIDTH 2 0
BBX 4 9 0 -2
BITMAP
10
30
20
40
60
A0
C0
80
80
ENDCHAR
STARTCHAR Lcaron
ENCODING 317
SWIDTH 617 0
DWIDTH 5 0
BBX 8 10 0 -2
BITMAP
03
06
04
08
10
10
20
40
F1
0E
ENDCHAR
STARTCHAR lcaron
ENCODING 318
SWIDTH 270 0
DWIDTH 2 0
BBX 5 8 0 0
BITMAP
08
18
30
20
40
60
A0
C0
ENDCHAR
STARTCHAR Ldot
ENCODING 319
SWIDTH 617 0
DWIDTH 5 0
BBX 8 10 0 -2
BITMAP
04
06
04
08
10
18
20
40
F1
0E
ENDCHAR
STARTCHAR ldot
ENCODING 320
SWIDTH 270 0
DWIDTH 2 0
BBX 4 7 0 0
BITMAP
10
30
20
60
60
A0
C0
ENDCHAR
STARTCHAR Lslash
ENCODING 321
SWIDTH 617 0
DWIDTH 5 0
BBX 8 10 0 -2
BITMAP
04
06
04
08
10
10
70
40
F1
0E
ENDCHAR
STARTCHAR lslash
ENCODING 322
SWIDTH 269 0
DWIDTH 2 0
BBX 4 7 0 0
BITMAP
10
30
60
60
60
A0
C0
ENDCHAR
STARTCHAR Nacute
ENCODING 323
SWIDTH 820 0
DWIDTH 7 0
BBX 9 11 1 -1
BITMAP
0200
0400
1980
3700
5A00
B600
A400
6C00
C800
8800
8C00
ENDCHAR
STARTCHAR nacute
ENCODING 324
SWIDTH 511 0
DWIDTH 4 0
BBX 5 7 0 0
BITMAP
10
10
70
70
58
A8
B0
ENDCHAR
STARTCHAR uni0145
ENCODING 325
SWIDTH 820 0
DWIDTH 7 0
BBX 9 11 1 -3
BITMAP
1980
3700
5A00
B600
A400
6C00
C800
8800
8C00
2000
4000
ENDCHAR
STARTCHAR uni0146
ENCODING 326
SWIDTH 511 0
DWIDTH 4 0
BBX 5 7 0 -2
BITMAP
50
70
58
A8
B0
80
C0
ENDCHAR
STARTCHAR Ncaron
ENCODING 327
SWIDTH 820 0
DWIDTH 7 0
BBX 9 11 1 -1
BITMAP
0600
0000
1980
3700
5A00
B600
A400
6C00
C800
8800
8C00
ENDCHAR
STARTCHAR ncaron
ENCODING 328
SWIDTH 511 0
DWIDTH 4 0
BBX 5 6 0 0
BITMAP
10
50
70
58
A8
B0
ENDCHAR
STARTCHAR napostrophe
ENCODING 329
SWIDTH 511 0
DWIDTH 4 0
BBX 5 6 0 0
BITMAP
40
50
70
58
A8
B0
ENDCHAR
STARTCHAR Omacron
ENCODING 332
SWIDTH 601 0
DWIDTH 5 0
BBX 8 11 0 -1
BITMAP
03
04
09
11
21
71
42
C6
84
98
70
ENDCHAR
STARTCHAR omacron
ENCODING 333
SWIDTH 471 0
DWIDTH 4 0
BBX 5 6 0 0
BITMAP
18
30
70
50
90
E0
ENDCHAR
STARTCHAR Obreve
ENCODING 334
SWIDTH 601 0
DWIDTH 5 0
BBX 8 11 0 -1
BITMAP
03
04
09
11
21
71
42
C6
84
98
70
ENDCHAR
STARTCHAR obreve
ENCODING 335
SWIDTH 471 0
DWIDTH 4 0
BBX 5 6 0 0
BITMAP
18
10
70
50
90
E0
ENDCHAR
STARTCHAR Ohungarumlaut
ENCODING 336
SWIDTH 601 0
DWIDTH 5 0
BBX 8 11 0 -1
BITMAP
03
06
09
11
21
71
42
C6
84
98
70
ENDCHAR
STARTCHAR ohungarumlaut
ENCODING 337
SWIDTH 471 0
DWIDTH 4 0
BBX 5 7 0 0
BITMAP
18
18
30
70
50
90
E0
ENDCHAR
STARTCHAR OE
ENCODING 338
SWIDTH 1414 0
DWIDTH 11 0
BBX 15 10 0 -1
BITMAP
0202
0F7E
11E0
2340
75F0
47C0
C700
8500
9D20
73E0
ENDCHAR
STARTCHAR oe
ENCODING 339
SWIDTH 884 0
DWIDTH 7 0
BBX 8 5 0 0
BITMAP
11
77
5F
9D
EE
ENDCHAR
STARTCHAR Racute
ENCODING 340
SWIDTH 940 0
DWIDTH 8 0
BBX 9 12 0 -2
BITMAP
0100
0200
0F80
1E80
2480
4880
5900
B600
3800
2800
4800
0600
ENDCHAR
STARTCHAR racute
ENCODING 341
SWIDTH 390 0
DWIDTH 3 0
BBX 4 7 1 0
BITMAP
10
20
60
E0
E0
A0
C0
ENDCHAR
STARTCHAR uni0156
ENCODING 342
SWIDTH 940 0
DWIDTH 8 0
BBX 9 11 0 -3
BITMAP
0F80
1E80
2480
4880
5900
B600
3800
2800
4800
1600
1000
ENDCHAR
STARTCHAR uni0157
ENCODING 343
SWIDTH 390 0
DWIDTH 3 0
BBX 4 7 0 -2
BITMAP
30
70
B0
50
60
80
C0
ENDCHAR
STARTCHAR Rcaron
ENCODING 344
SWIDTH 940 0
DWIDTH 8 0
BBX 9 12 0 -2
BITMAP
0300
0100
0F80
1E80
2480
4880
5900
B600
3800
2800
4800
0600
ENDCHAR
STARTCHAR rcaron
ENCODING 345
SWIDTH 390 0
DWIDTH 3 0
BBX 3 7 1 0
BITMAP
60
20
60
E0
E0
A0
C0
ENDCHAR
STARTCHAR Sacute
ENCODING 346
SWIDTH 797 0
DWIDTH 6 0
BBX 9 11 0 -1
BITMAP
0080
0100
0780
0880
0900
1800
0C00
4400
C400
8800
7000
ENDCHAR
STARTCHAR sacute
ENCODING 347
SWIDTH 309 0
DWIDTH 2 0
BBX 4 7 0 0
BITMAP
10
20
30
60
60
C0
C0
ENDCHAR
STARTCHAR Scircumflex
ENCODING 348
SWIDTH 797 0
DWIDTH 6 0
BBX 9 11 0 -1
BITMAP
0080
0180
0780
0880
0900
1800
0C00
4400
C400
8800
7000
ENDCHAR
STARTCHAR scircumflex
ENCODING 349
SWIDTH 309 0
DWIDTH 2 0
BBX 4 6 0 0
BITMAP
30
30
60
60
C0
C0
ENDCHAR
STARTCHAR Scedilla
ENCODING 350
SWIDTH 797 0
DWIDTH 6 0
BBX 9 10 0 -2
BITMAP
0780
0880
0900
1800
0C00
4400
C400
8800
7000
6000
ENDCHAR
STARTCHAR scedilla
ENCODING 351
SWIDTH 309 0
DWIDTH 2 0
BBX 4 6 0 -1
BITMAP
30
60
60
C0
C0
80
ENDCHAR
STARTCHAR Scaron
ENCODING 352
SWIDTH 797 0
DWIDTH 6 0
BBX 9 11 0 -1
BITMAP
0180
0100
0780
0880
0900
1800
0C00
4400
C400
8800
7000
ENDCHAR
STARTCHAR scaron
ENCODING 353
SWIDTH 309 0
DWIDTH 2 0
BBX 4 7 0 0
BITMAP
30
10
30
60
60
C0
C0
ENDCHAR
STARTCHAR uni0162
ENCODING 354
SWIDTH 511 0
DWIDTH 4 0
BBX 10 11 1 -3
BITMAP
3FC0
4800
9800
9000
2000
6000
4000
8000
8000
8000
8000
ENDCHAR
STARTCHAR uni0163
ENCODING 355
SWIDTH 269 0
DWIDTH 2 0
BBX 5 9 0 -2
BITMAP
10
38
60
40
60
A0
C0
80
C0
ENDCHAR
STARTCHAR Tcaron
ENCODING 356
SWIDTH 511 0
DWIDTH 4 0
BBX 10 11 1 -1
BITMAP
0600
0400
3FC0
4800
9800
9000
2000
6000
4000
8000
8000
ENDCHAR
STARTCHAR tcaron
ENCODING 357
SWIDTH 278 0
DWIDTH 2 0
BBX 5 8 0 0
BITMAP
08
18
38
60
40
60
A0
C0
ENDCHAR
STARTCHAR Tbar
ENCODING 358
SWIDTH 511 0
DWIDTH 4 0
BBX 10 9 1 -1
BITMAP
3FC0
4800
9800
B000
2000
6000
4000
8000
8000
ENDCHAR
STARTCHAR tbar
ENCODING 359
SWIDTH 269 0
DWIDTH 2 0
BBX 5 7 0 0
BITMAP
10
38
60
60
60
A0
C0
ENDCHAR
STARTCHAR Utilde
ENCODING 360
SWIDTH 963 0
DWIDTH 8 0
BBX 11 11 0 -2
BITMAP
00C0
0640
1B60
6640
4480
8980
1900
1200
3600
1A00
0200
ENDCHAR
STARTCHAR utilde
ENCODING 361
SWIDTH 537 0
DWIDTH 4 0
BBX 6 6 0 0
BITMAP
30
50
78
54
A8
F0
ENDCHAR
STARTCHAR Umacron
ENCODING 362
SWIDTH 963 0
DWIDTH 8 0
BBX 11 11 0 -2
BITMAP
00C0
0640
1B60
6640
4480
8980
1900
1200
3600
1A00
0200
ENDCHAR
STARTCHAR umacron
ENCODING 363
SWIDTH 537 0
DWIDTH 4 0
BBX 6 6 0 0
BITMAP
18
70
78
54
A8
F0
ENDCHAR
STARTCHAR Ubreve
ENCODING 364
SWIDTH 963 0
DWIDTH 8 0
BBX 11 11 0 -2
BITMAP
00C0
0640
1B60
6640
4480
8980
1900
1200
3600
1A00
0200
ENDCHAR
STARTCHAR ubreve
ENCODING 365
SWIDTH 537 0
DWIDTH 4 0
BBX 6 6 0 0
BITMAP
30
50
78
54
A8
F0
ENDCHAR
STARTCHAR Uring
ENCODING 366
SWIDTH 963 0
DWIDTH 8 0
BBX 11 12 0 -2
BITMAP
0040
00C0
0640
1B60
6640
4480
8980
1900
1200
3600
1A00
0200
ENDCHAR
STARTCHAR uring
ENCODING 367
SWIDTH 537 0
DWIDTH 4 0
BBX 6 6 0 0
BITMAP
30
50
78
54
A8
F0
ENDCHAR
STARTCHAR Uhungarumlaut
ENCODING 368
SWIDTH 963 0
DWIDTH 8 0
BBX 11 12 0 -2
BITMAP
00A0
00E0
0640
1B60
6640
4480
8980
1900
1200
3600
1A00
0200
ENDCHAR
STARTCHAR uhungarumlaut
ENCODING 369
SWIDTH 537 0
DWIDTH 4 0
BBX 6 7 0 0
BITMAP
18
18
70
78
54
A8
F0
ENDCHAR
STARTCHAR Uogonek
ENCODING 370
SWIDTH 963 0
DWIDTH 8 0
BBX 11 10 0 -2
BITMAP
0640
1B60
6640
4480
8980
1900
1200
3600
1A00
0600
ENDCHAR
STARTCHAR uogonek
ENCODING 371
SWIDTH 537 0
DWIDTH 4 0
BBX 6 6 0 -1
BITMAP
50
78
54
A8
F0
20
ENDCHAR
STARTCHAR Wcircumflex
ENCODING 372
SWIDTH 1308 0
DWIDTH 10 0
BBX 15 10 0 -1
BITMAP
0020
0E02
1B44
6648
4488
8990
1920
1240
3680
3F00
ENDCHAR
STARTCHAR wcircumflex
ENCODING 373
SWIDTH 670 0
DWIDTH 5 0
BBX 7 6 0 0
BITMAP
08
5C
7A
54
A8
F0
ENDCHAR
STARTCHAR Ycircumflex
ENCODING 374
SWIDTH 917 0
DWIDTH 7 0
BBX 12 13 -1 -4
BITMAP
0060
0FA0
1930
3260
6640
0480
0980
1B00
7E00
8200
8400
D800
2000
ENDCHAR
STARTCHAR ycircumflex
ENCODING 375
SWIDTH 444 0
DWIDTH 4 0
BBX 8 10 -3 -4
BITMAP
02
0E
0F
0A
14
1C
38
D8
94
60
ENDCHAR
STARTCHAR Ydieresis
ENCODING 376
SWIDTH 917 0
DWIDTH 7 0
BBX 12 14 -1 -4
BITMAP
0060
0000
0FA0
1930
3260
6640
0480
0980
1B00
7E00
8200
8400
D800
2000
ENDCHAR
STARTCHAR Zacute
ENCODING 377
SWIDTH 850 0
DWIDTH 7 0
BBX 10 12 0 -2
BITMAP
0040
0180
03C0
04C0
0B00
0600
1800
3000
4000
8000
7300
1C00
ENDCHAR
STARTCHAR zacute
ENCODING 378
SWIDTH 375 0
DWIDTH 3 0
BBX 8 11 -3 -4
BITMAP
01
06
06
0E
14
08
38
38
D8
94
60
ENDCHAR
STARTCHAR Zdotaccent
ENCODING 379
SWIDTH 850 0
DWIDTH 7 0
BBX 10 11 0 -2
BITMAP
0080
03C0
04C0
0B00
0600
1800
3000
4000
8000
7300
1C00
ENDCHAR
STARTCHAR zdotaccent
ENCODING 380
SWIDTH 375 0
DWIDTH 3 0
BBX 7 10 -3 -4
BITMAP
02
06
0E
14
08
38
38
D8
94
60
ENDCHAR
STARTCHAR Zcaron
ENCODING 381
SWIDTH 850 0
DWIDTH 7 0
BBX 10 12 0 -2
BITMAP
0140
0080
03C0
04C0
0B00
0600
1800
3000
4000
8000
7300
1C00
ENDCHAR
STARTCHAR zcaron
ENCODING 382
SWIDTH 375 0
DWIDTH 3 0
BBX 7 10 -3 -4
BITMAP
02
06
0E
14
08
38
38
D8
94
60
ENDCHAR
STARTCHAR longs
ENCODING 383
SWIDTH 235 0
DWIDTH 2 0
BBX 6 10 -2 -3
BITMAP
04
0C
08
10
18
30
60
60
C0
C0
ENDCHAR
STARTCHAR florin
ENCODING 402
SWIDTH 235 0
DWIDTH 2 0
BBX 6 10 -2 -3
BITMAP
04
0C
08
10
18
30
60
60
C0
C0
ENDCHAR
STARTCHAR uni0218
ENCODING 536
SWIDTH 797 0
DWIDTH 6 0
BBX 9 11 0 -3
BITMAP
0780
0880
0900
1800
0C00
4400
C400
8800
7000
4000
6000
ENDCHAR
STARTCHAR uni0219
ENCODING 537
SWIDTH 309 0
DWIDTH 2 0
BBX 4 7 0 -2
BITMAP
30
60
60
C0
C0
80
80
ENDCHAR
STARTCHAR circumflex
ENCODING 710
SWIDTH 390 0
DWIDTH 3 0
BBX 2 2 1 4
BITMAP
40
C0
ENDCHAR
STARTCHAR caron
ENCODING 711
SWIDTH 390 0
DWIDTH 3 0
BBX 2 1 1 5
BITMAP
C0
ENDCHAR
STARTCHAR breve
ENCODING 728
SWIDTH 390 0
DWIDTH 3 0
BBX 1 1 1 5
BITMAP
80
ENDCHAR
STARTCHAR dotaccent
ENCODING 729
SWIDTH 601 0
DWIDTH 5 0
BBX 1 1 2 5
BITMAP
80
ENDCHAR
STARTCHAR ring
ENCODING 730
SWIDTH 390 0
DWIDTH 3 0
BBX 1 1 1 5
BITMAP
80
ENDCHAR
STARTCHAR ogonek
ENCODING 731
SWIDTH 601 0
DWIDTH 5 0
BBX 2 1 1 -1
BITMAP
C0
ENDCHAR
STARTCHAR tilde
ENCODING 732
SWIDTH 390 0
DWIDTH 3 0
BBX 2 1 1 5
BITMAP
C0
ENDCHAR
STARTCHAR hungarumlaut
ENCODING 733
SWIDTH 413 0
DWIDTH 3 0
BBX 3 2 1 5
BITMAP
A0
E0
ENDCHAR
STARTCHAR Wgrave
ENCODING 7808
SWIDTH 1308 0
DWIDTH 10 0
BBX 15 11 0 -1
BITMAP
0040
0060
0E02
1B44
6648
4488
8990
1920
1240
3680
3F00
ENDCHAR
STARTCHAR wgrave
ENCODING 7809
SWIDTH 670 0
DWIDTH 5 0
BBX 7 7 0 0
BITMAP
10
10
54
7A
54
A8
F0
ENDCHAR
STARTCHAR Wacute
ENCODING 7810
SWIDTH 1308 0
DWIDTH 10 0
BBX 15 10 0 -1
BITMAP
0030
0E42
1B44
6648
4488
8990
1920
1240
3680
3F00
ENDCHAR
STARTCHAR wacute
ENCODING 7811
SWIDTH 670 0
DWIDTH 5 0
BBX 7 7 0 0
BITMAP
04
08
54
7A
54
A8
F0
ENDCHAR
STARTCHAR Wdieresis
ENCODING 7812
SWIDTH 1308 0
DWIDTH 10 0
BBX 15 10 0 -1
BITMAP
0050
0E02
1B44
6648
4488
8990
1920
1240
3680
3F00
ENDCHAR
STARTCHAR wdieresis
ENCODING 7813
SWIDTH 670 0
DWIDTH 5 0
BBX 7 6 0 0
BITMAP
0C
54
7A
54
A8
F0
ENDCHAR
STARTCHAR franc
ENCODING 8355
SWIDTH 752 0
DWIDTH 6 0
BBX 10 10 0 -1
BITMAP
0040
0FC0
3C00
4800
9A00
FC00
7000
F000
C000
4000
ENDCHAR
STARTCHAR lira
ENCODING 8356
SWIDTH 617 0
DWIDTH 5 0
BBX 8 10 0 -2
BITMAP
04
06
04
08
1C
10
70
40
F1
0E
ENDCHAR
STARTCHAR peseta
ENCODING 8359
SWIDTH 1451 0
DWIDTH 12 0
BBX 13 9 0 -1
BITMAP
0F80
1CA0
2CF0
68D8
5190
A6F0
3970
41E0
4000
ENDCHAR
STARTCHAR Euro
ENCODING 8364
SWIDTH 714 0
DWIDTH 6 0
BBX 8 9 0 0
BITMAP
07
09
13
70
60
E0
C0
90
E0
ENDCHAR
STARTCHAR apple
ENCODING 63743
SWIDTH 1249 0
DWIDTH 10 0
BBX 8 6 1 1
BITMAP
10
3C
18
28
FF
DF
ENDCHAR
STARTCHAR f_f
ENCODING 64256
SWIDTH 470 0
DWIDTH 4 0
BBX 8 10 -2 -3
BITMAP
05
0F
0A
14
1E
2C
78
70
B0
F0
ENDCHAR
STARTCHAR fi
ENCODING 64257
SWIDTH 498 0
DWIDTH 4 0
BBX 8 10 -2 -3
BITMAP
05
0E
0E
14
1E
2C
78
60
C0
C0
ENDCHAR
STARTCHAR fl
ENCODING 64258
SWIDTH 503 0
DWIDTH 4 0
BBX 8 10 -2 -3
BITMAP
05
0F
0A
14
1E
2A
7C
60
C0
C0
ENDCHAR
STARTCHAR f_f_i
ENCODING 64259
SWIDTH 733 0
DWIDTH 6 0
BBX 10 10 -2 -3
BITMAP
0580
0FC0
0B80
1500
1F80
2B00
7E00
7000
B000
F000
ENDCHAR
STARTCHAR f_f_l
ENCODING 64260
SWIDTH 739 0
DWIDTH 6 0
BBX 10 10 -2 -3
BITMAP
0540
0F80
0A80
1500
1F80
2B00
7F00
7000
B000
F000
ENDCHAR
STARTCHAR longs_t
ENCODING 64261
SWIDTH 504 0
DWIDTH 4 0
BBX 9 10 -2 -3
BITMAP
0500
0F80
0E00
1400
1E00
2A00
7C00
6000
C000
C000
ENDCHAR
STARTCHAR .notdef
ENCODING -1
SWIDTH 225 0
DWIDTH 2 0
BBX 1 1 0 0
BITMAP
00
ENDCHAR
ENDFONT
